# File created by Blade
# Date/Time:  Tue Jan 27 19:54:25 2015
# Frame Rate: 120.000 fps
#------------------------------------------------------
:FULLY-SPECIFIED
:DEGREES
3407
root 4.463608 35.222219 -0.960994 38.003183 -8.751879 -44.013552
Spine 3.014967 21.636592 17.788813
Head -39.535532 4.770824 21.031729
LeftShoulder -16.674144 -4.490796 36.568294
LeftArm -12.339937 -54.640507 -56.817239
LeftForeArm -71.977685 -0.000000 138.732499
LeftHand 7.726436 -0.000000 -35.959551
LeftHandThumb1 -26.253704 0.000000 33.147579
RightShoulder -13.106139 -5.609671 -11.907732
RightArm 24.628017 -35.564714 72.075125
RightForeArm -27.206733 -0.000000 23.028503
RightHand 17.442286 -0.000000 10.609620
RightHandThumb1 -24.326973 -0.000000 -32.862282
LeftUpLeg -16.007683 13.878366 37.119529
LeftLeg -6.426506 -0.000000 0.000000
LeftFoot -12.787467 10.300087 -17.147804
LeftToeBase 23.446011 -0.000000 -0.000000
RightUpLeg 13.521639 -30.501711 -45.189887
RightLeg 104.341985 -0.000000 -0.000000
RightFoot 28.146393 -28.946459 26.028907
RightToeBase 11.865567 -0.000000 -0.000000
3408
root 4.468096 35.225007 -0.970621 38.047729 -8.787028 -44.015169
Spine 3.010531 21.736678 17.720536
Head -39.477558 4.727116 21.064260
LeftShoulder -16.646370 -4.565676 36.583237
LeftArm -12.242552 -54.541746 -56.791747
LeftForeArm -72.018704 0.000000 138.700915
LeftHand 7.776065 -0.000000 -35.822845
LeftHandThumb1 -26.253704 0.000000 33.147579
RightShoulder -13.118396 -5.649848 -11.893215
RightArm 24.709781 -35.544625 72.078575
RightForeArm -27.174247 -0.000000 23.037622
RightHand 17.439764 -0.000000 10.450293
RightHandThumb1 -24.326973 -0.000000 -32.862282
LeftUpLeg -16.046442 13.939437 37.090850
LeftLeg -6.414826 -0.000000 0.000000
LeftFoot -12.751116 10.248224 -17.223933
LeftToeBase 23.323746 -0.000000 -0.000000
RightUpLeg 13.651881 -30.405278 -45.095421
RightLeg 104.089933 -0.000000 -0.000000
RightFoot 28.288872 -28.976094 25.944326
RightToeBase 11.591801 -0.000000 -0.000000
3409
root 4.475724 35.227590 -0.980760 38.094976 -8.817932 -43.995675
Spine 3.016678 21.805117 17.654116
Head -39.458495 4.709349 21.045757
LeftShoulder -16.640763 -4.651388 36.597091
LeftArm -12.163874 -54.472761 -56.787520
LeftForeArm -72.044832 -0.000000 138.660527
LeftHand 7.776399 -0.000000 -35.814989
LeftHandThumb1 -26.253704 0.000000 33.147579
RightShoulder -13.152425 -5.664199 -11.886163
RightArm 24.825135 -35.579547 72.047729
RightForeArm -27.100588 -0.000000 23.036362
RightHand 17.411457 -0.000000 10.314453
RightHandThumb1 -24.326973 -0.000000 -32.862282
LeftUpLeg -16.125391 13.951539 37.046582
LeftLeg -6.349614 -0.000000 0.000000
LeftFoot -12.701403 10.264920 -17.020695
LeftToeBase 23.286642 -0.000000 -0.000000
RightUpLeg 13.786066 -30.326580 -45.018999
RightLeg 103.893689 -0.000000 -0.000000
RightFoot 28.268192 -28.974715 25.975694
RightToeBase 11.529524 -0.000000 -0.000000
3410
root 4.482984 35.228932 -0.991647 38.144033 -8.849682 -43.965129
Spine 2.995765 21.867299 17.574584
Head -39.376362 4.682179 21.029937
LeftShoulder -16.609345 -4.733677 36.621079
LeftArm -12.087958 -54.428368 -56.789017
LeftForeArm -71.966971 -0.000000 138.628562
LeftHand 7.754757 -0.000000 -36.087870
LeftHandThumb1 -26.253704 0.000000 33.147579
RightShoulder -13.164298 -5.656926 -11.878466
RightArm 24.881949 -35.570676 72.053760
RightForeArm -26.870631 -0.000000 23.033402
RightHand 17.319831 0.000000 9.822271
RightHandThumb1 -24.326973 -0.000000 -32.862282
LeftUpLeg -16.216835 13.993198 36.994927
LeftLeg -6.286876 -0.000000 0.000000
LeftFoot -12.790081 10.173736 -17.333704
LeftToeBase 23.687707 -0.000000 -0.000000
RightUpLeg 13.935429 -30.291328 -44.991804
RightLeg 103.738553 -0.000000 -0.000000
RightFoot 28.186129 -28.974416 26.012423
RightToeBase 11.546436 -0.000000 -0.000000
3411
root 4.491533 35.228727 -1.002689 38.185755 -8.896619 -43.932383
Spine 2.987252 21.907990 17.494821
Head -39.290978 4.682404 21.009533
LeftShoulder -16.590437 -4.799862 36.643644
LeftArm -12.052018 -54.401689 -56.757322
LeftForeArm -71.965975 -0.000000 138.591487
LeftHand 7.723475 -0.000000 -36.078422
LeftHandThumb1 -26.253704 0.000000 33.147579
RightShoulder -13.164421 -5.620590 -11.897258
RightArm 24.904530 -35.585100 72.086144
RightForeArm -26.986411 -0.000000 23.056485
RightHand 17.419142 -0.000000 10.235028
RightHandThumb1 -24.326973 -0.000000 -32.862282
LeftUpLeg -16.298423 14.011744 36.940184
LeftLeg -6.204438 -0.000000 0.000000
LeftFoot -12.883118 10.102175 -17.537057
LeftToeBase 23.983505 -0.000000 -0.000000
RightUpLeg 14.052771 -30.265983 -44.985875
RightLeg 103.605905 -0.000000 -0.000000
RightFoot 28.173121 -29.066249 26.066407
RightToeBase 11.547911 -0.000000 -0.000000
3412
root 4.500780 35.228171 -1.015761 38.241268 -8.946041 -43.891309
Spine 2.954806 21.917119 17.399999
Head -39.188008 4.712763 20.982692
LeftShoulder -16.574961 -4.858924 36.675214
LeftArm -12.075890 -54.382173 -56.679868
LeftForeArm -71.961312 -0.000000 138.559094
LeftHand 7.724838 -0.000000 -36.080821
LeftHandThumb1 -26.253704 0.000000 33.147579
RightShoulder -13.151274 -5.600247 -11.904531
RightArm 24.979122 -35.609742 72.081449
RightForeArm -27.004486 0.000000 23.065602
RightHand 17.382668 -0.000000 10.305161
RightHandThumb1 -24.326973 -0.000000 -32.862282
LeftUpLeg -16.396271 14.041839 36.864504
LeftLeg -6.122722 -0.000000 0.000000
LeftFoot -12.857851 10.038824 -17.456691
LeftToeBase 23.867804 -0.000000 -0.000000
RightUpLeg 14.149852 -30.280199 -44.993038
RightLeg 103.536241 -0.000000 -0.000000
RightFoot 28.161598 -29.016032 25.943377
RightToeBase 11.741753 -0.000000 -0.000000
3413
root 4.511496 35.227452 -1.029707 38.295420 -9.007873 -43.872963
Spine 2.944549 21.954892 17.338797
Head -39.102688 4.716631 20.949417
LeftShoulder -16.531127 -4.939368 36.696424
LeftArm -12.181646 -54.392105 -56.544918
LeftForeArm -71.750220 -0.000000 138.581767
LeftHand 7.729889 -0.000000 -35.828798
LeftHandThumb1 -26.253704 0.000000 33.147579
RightShoulder -13.163771 -5.535372 -11.937522
RightArm 25.020974 -35.654317 72.098073
RightForeArm -27.064393 -0.000000 23.063473
RightHand 17.306054 0.000000 10.278927
RightHandThumb1 -24.326973 -0.000000 -32.862282
LeftUpLeg -16.465232 14.092255 36.805726
LeftLeg -6.064850 -0.000000 0.000000
LeftFoot -12.928163 9.936745 -17.644356
LeftToeBase 24.143256 -0.000000 -0.000000
RightUpLeg 14.202788 -30.279166 -44.965564
RightLeg 103.500549 -0.000000 -0.000000
RightFoot 28.230370 -28.973182 25.848589
RightToeBase 11.640925 -0.000000 -0.000000
3414
root 4.520371 35.225975 -1.043384 38.338774 -9.063838 -43.857497
Spine 2.920707 21.921826 17.276339
Head -38.944695 4.763325 20.930531
LeftShoulder -16.495484 -4.917588 36.728426
LeftArm -12.240521 -54.414656 -56.464343
LeftForeArm -71.878488 -0.000000 138.528624
LeftHand 7.721537 -0.000000 -35.935309
LeftHandThumb1 -26.253704 0.000000 33.147579
RightShoulder -13.098734 -5.427690 -11.977404
RightArm 24.996623 -35.713621 72.138402
RightForeArm -27.158343 -0.000000 23.097728
RightHand 17.107972 -0.000000 10.493009
RightHandThumb1 -24.326973 -0.000000 -32.862282
LeftUpLeg -16.513474 14.129918 36.758840
LeftLeg -6.029721 -0.000000 0.000000
LeftFoot -12.985079 9.855753 -17.790792
LeftToeBase 24.331370 -0.000000 -0.000000
RightUpLeg 14.287084 -30.317078 -44.982241
RightLeg 103.486472 -0.000000 -0.000000
RightFoot 28.300279 -28.952992 25.711148
RightToeBase 11.587173 -0.000000 -0.000000
3415
root 4.531043 35.225221 -1.057705 38.386656 -9.122038 -43.857774
Spine 2.926320 21.913755 17.256048
Head -38.853179 4.767074 20.864739
LeftShoulder -16.471227 -4.930220 36.733937
LeftArm -12.313172 -54.439987 -56.373016
LeftForeArm -71.929203 0.000000 138.502448
LeftHand 7.644628 -0.000000 -35.953449
LeftHandThumb1 -26.253704 0.000000 33.147579
RightShoulder -13.093186 -5.337535 -12.032275
RightArm 25.012396 -35.764251 72.162140
RightForeArm -27.187330 -0.000000 23.140158
RightHand 17.180436 0.000000 10.483500
RightHandThumb1 -24.326973 -0.000000 -32.862282
LeftUpLeg -16.554448 14.192935 36.715853
LeftLeg -6.008585 -0.000000 0.000000
LeftFoot -13.018339 9.766083 -17.911226
LeftToeBase 24.521597 -0.000000 -0.000000
RightUpLeg 14.338616 -30.359834 -44.969095
RightLeg 103.511509 -0.000000 -0.000000
RightFoot 28.320406 -28.886449 25.644900
RightToeBase 11.602554 -0.000000 -0.000000
3416
root 4.540051 35.225068 -1.071320 38.426929 -9.190481 -43.874566
Spine 2.947382 21.895294 17.243015
Head -38.770447 4.793278 20.818444
LeftShoulder -16.482054 -4.896362 36.731029
LeftArm -12.280878 -54.450554 -56.377057
LeftForeArm -72.005867 -0.000000 138.475724
LeftHand 7.662069 -0.000000 -35.611253
LeftHandThumb1 -26.253704 0.000000 33.147579
RightShoulder -13.080930 -5.267658 -12.065602
RightArm 25.050485 -35.782642 72.164734
RightForeArm -27.166559 0.000000 23.189080
RightHand 17.315811 0.000000 10.401756
RightHandThumb1 -24.326973 -0.000000 -32.862282
LeftUpLeg -16.557382 14.296787 36.674136
LeftLeg -6.023766 -0.000000 0.000000
LeftFoot -13.034809 9.658032 -18.027435
LeftToeBase 24.713574 -0.000000 -0.000000
RightUpLeg 14.374216 -30.404141 -44.946909
RightLeg 103.553672 -0.000000 -0.000000
RightFoot 28.333206 -28.897020 25.675678
RightToeBase 11.595481 -0.000000 -0.000000
